# xmcd
#
# Track frame offsets:
#	150
#	11712
#	21140
#	31662
#	42810
#	58392
#	70695
#	80992
#	94890
#	113872
#	126385
#	136997
#	148865
#	160432
#	175272
#	188695
#	201135
#	211580
#	223762
#	236905
#
# Disc length: 3279
#
# Revision: 3
# Processed by: cddbd v1.5.1PL0 Copyright (c) Steve Scherf et al.
# Submitted via: DiscPlay 4.0.4
# Normalized: r1:DSETVAR1,TDELIM( - ),TSWAP
#
DISCID=2b0ccd14
DTITLE=Various Artist - Chess Rhythm and Blues CD2
DYEAR=1900
DGENRE=
TTITLE0=Etta James - I'd Rather Go Blind
TTITLE1=Eddie Burns - Jinglin' Baby
TTITLE2=Buddy Guy - First Time I Met the Blues
TTITLE3=Lloyd Glenn - The Shakedown
TTITLE4=Sonny Boy Williamson - Nine Below Zero
TTITLE5=Elmore James - The Sun is Shining
TTITLE6=Little Milton - Satisfied
TTITLE7=Etta James - I Just Want to Make Love to You
TTITLE8=Walter Shakey Horton - Good Moanin' Blues
TTITLE9=Clarence Samuels - Lollypop Mama
TTITLE10=Etta James - Tell Mama
TTITLE11=Little Milton - We're Gonna Make It
TTITLE12=Tony Clarke - The Entertainer
TTITLE13=Ramsey Lewis Trio - The 'In' Crowd
TTITLE14=Billy Stewart - I Do Love You
TTITLE15=Jimmy McCracklin - The Walk
TTITLE16=Clarence Frogman Henry - (I Don't Know Why) But I Do
TTITLE17=The Miracles - Bad Girl
TTITLE18=Fontella Bass - Rescue Me
TTITLE19=Jan Bradley - Mam Didn't Lie
EXTD=
EXTT0=
EXTT1=
EXTT2=
EXTT3=
EXTT4=
EXTT5=
EXTT6=
EXTT7=
EXTT8=
EXTT9=
EXTT10=
EXTT11=
EXTT12=
EXTT13=
EXTT14=
EXTT15=
EXTT16=
EXTT17=
EXTT18=
EXTT19=
PLAYORDER=
